{"accessors":[{"bufferView":0,"componentType":5126,"count":636,"max":[0.18154028058052063,0.16499999165534973,0.18154028058052063],"min":[-0.18154028058052063,-0.16499999165534973,-0.18154028058052063],"normalized":false,"type":"VEC3"},{"bufferView":1,"componentType":5126,"count":636,"max":[1.0,0.7726941704750061,1.0,1.0],"min":[-1.0,-0.77277010679245,-1.0,1.0],"normalized":false,"type":"VEC4"},{"bufferView":2,"componentType":5126,"count":636,"max":[0.960838794708252,1.0,0.9608416557312012],"min":[-0.960841715335846,-1.0,-0.9608237147331238],"normalized":false,"type":"VEC3"},{"bufferView":3,"componentType":5126,"count":636,"max":[0.46875,0.9750000238418579],"min":[0.46875,0.7749999761581421],"normalized":false,"type":"VEC2"},{"bufferView":4,"componentType":5123,"count":1008,"max":[635],"min":[0],"normalized":false,"type":"SCALAR"}],"asset":{"generator":"Godot Engine v4.6.1.stable.official@14d19694e0c88a3f9e82d899a0400f27a24c176e","version":"2.0"},"bufferViews":[{"buffer":0,"byteLength":7632,"byteStride":12,"target":34962},{"buffer":0,"byteLength":10176,"byteOffset":7632,"byteStride":16,"target":34962},{"buffer":0,"byteLength":7632,"byteOffset":17808,"byteStride":12,"target":34962},{"buffer":0,"byteLength":5088,"byteOffset":25440,"byteStride":8,"target":34962},{"buffer":0,"byteLength":2016,"byteOffset":30528,"target":34963}],"buffers":[{"byteLength":32544,"uri":"Cloud0.bin"}],"extensionsUsed":["GODOT_single_root"],"images":[{"uri":"textures%2F.png"}],"materials":[{"doubleSided":true,"name":"colormap","pbrMetallicRoughness":{"baseColorFactor":[1.0,1.0,1.0,1.0],"baseColorTexture":{"index":0},"metallicFactor":0.0,"roughnessFactor":1.0}}],"meshes":[{"name":"cloud_cloud","primitives":[{"attributes":{"NORMAL":2,"POSITION":0,"TANGENT":1,"TEXCOORD_0":3},"indices":4,"material":0,"mode":4}]}],"nodes":[{"children":[1],"name":"Node3D"},{"children":[2],"name":"cloud2"},{"mesh":0,"name":"cloud"}],"samplers":[{"magFilter":9729,"minFilter":9987,"wrapS":10497,"wrapT":10497}],"scene":0,"scenes":[{"nodes":[0]}],"textures":[{"sampler":0,"source":0}]}